<?xml version="1.0" encoding="utf-8"?>
<!-- Generator: Adobe Illustrator 27.5.0, SVG Export Plug-In . SVG Version: 6.00 Build 0)  -->
<svg version="1.1" xmlns="http://www.w3.org/2000/svg" xmlns:xlink="http://www.w3.org/1999/xlink" x="0px" y="0px"
	 viewBox="0 0 750 500" style="enable-background:new 0 0 750 500;" xml:space="preserve">
<g id="BACKGROUND">
	<path style="fill:#F2D3E8;" d="M412.384,56.201c-52.423-4.211-105.476-6.257-157.348,2.415
		c-51.872,8.672-102.905,28.733-141.751,64.185c-38.846,35.453-64.184,87.518-60.435,139.975
		c4.778,66.831,55.654,123.816,116.2,152.512c60.546,28.696,129.517,33.545,196.515,32.857
		c77.565-0.795,160.751-10.694,219.189-61.705c36.614-31.961,59.7-77.559,70.07-125.042c7.017-32.134,8.214-67.148-6.587-96.521
		c-14.175-28.13-41.176-47.553-69-62.318C524.71,73.622,462.887,60.258,412.384,56.201z"/>
	<g>
		<path style="fill:#FFFFFF;" d="M640.741,297.349c-39.346-1.371-78.691-2.743-118.036-4.116c-4.137-0.144-8.509-0.358-11.971-2.627
			c-3.463-2.269-5.422-7.369-2.931-10.677c3.855-5.123,13.423-1.356,17.574-6.242c2.508-2.952,1.575-7.347,1.399-11.216
			c-0.524-11.617,8.307-22.952,19.7-25.285c11.393-2.333,23.969,4.62,24.991,17.085c7.343-8.209,20.273-10.796,30.21-6.045
			c4.227,2.021,8.771,5.292,13.118,3.543c4.493-1.807,5.398-7.618,7.871-11.782c4.361-7.337,15.598-9.339,17.898-3.481
			c2.092-9.723,11.051-17.545,20.967-18.306c9.917-0.762,19.964,5.601,22.929,17.886c4.278-3.326,10.778-3.415,15.146-0.208
			c4.37,3.208,6.231,9.435,4.339,14.513c-0.732,1.966-1.95,3.733-2.587,5.732c-0.637,1.999-0.547,4.46,1.013,5.864
			c2.606,2.345,6.584,0.144,9.98-0.728c5.171-1.329,11.086,1.221,13.67,5.894c2.584,4.672,1.6,11.038-3.522,17.47
			c3.824-1.167,7.974-2.33,11.735-0.976c3.761,1.355,6.331,6.446,3.752,9.5c-1.759,2.083-4.861,2.229-7.588,2.211
			C701.695,295.18,673.062,298.476,640.741,297.349z"/>
		<path style="fill:#FFFFFF;" d="M244.522,263.345c3.716-1.002,7.634-2.009,11.366-1.066c3.731,0.945,7.083,4.582,6.276,8.346
			c-0.974,4.55-6.63,6.018-11.251,6.566c-53.929,6.385-108.336,9.038-162.602,6.952c-4.291-0.166-8.774-0.413-12.483-2.576
			c-3.71-2.162-6.308-6.877-4.646-10.837c1.304-3.109,4.832-4.819,8.201-4.941c3.368-0.121,6.638,1.051,8.111,2.63
			c-0.866-3.42,0.146-7.253,2.586-9.801c2.44-2.547,6.227-3.723,9.591-2.882c-3.465-7.165-6.7-14.572-7.863-22.446
			c-1.164-7.875-0.06-16.36,4.543-22.854c4.603-6.494,13.127-10.47,20.801-8.357c4.154,1.144,8.251,3.94,12.397,2.768
			c5.077-1.434,6.685-7.622,9.486-12.094c3.195-5.1,8.908-8.535,14.91-8.965c6.002-0.431,12.146,2.154,12.918,8.773
			c5.474-5.388,13.979-7.466,21.321-5.209c7.343,2.256,13.212,8.752,14.715,16.285c0.99,4.967,0.572,10.955,4.564,14.072
			c3.408,2.66,8.288,1.733,12.483,0.689c5.005-1.245,10.252-2.474,15.259-1.243c5.007,1.231,9.605,5.777,7.813,14.437
			c4.467-1.401,9.515,1.605,11.384,5.898c1.868,4.293,1.037,9.38-1.114,13.539C251.136,255.189,247.8,258.595,244.522,263.345z"/>
	</g>
</g>
<g id="OBJECTS">
	<g>
		<g>
			<g>
				<path style="opacity:0.15;fill:#2E2854;" d="M649.175,159.123c-56.422,2.292-112.953,1.891-169.334-1.203
					c-6.683-0.367-11.996-5.752-12.336-12.436c-1.53-29.969-1.875-52.856-1.518-80.841c0.09-7.035,5.723-12.761,12.756-12.942
					c56.864-1.47,113.683-1.778,169.391-0.058c6.852,0.212,12.401,5.634,12.727,12.481c1.3,27.321,2.288,54.701,0.841,82.539
					C661.35,153.424,655.94,158.849,649.175,159.123z"/>
				<path style="fill:#FFFFFF;" d="M638.042,147.509c-56.422,2.292-112.953,1.891-169.334-1.203
					c-6.683-0.367-11.996-5.752-12.336-12.436c-1.53-29.969-1.875-52.856-1.518-80.841c0.09-7.035,5.723-12.761,12.756-12.942
					c56.865-1.47,113.683-1.778,169.392-0.058c6.852,0.212,12.401,5.634,12.727,12.481c1.3,27.321,2.288,54.701,0.841,82.539
					C650.217,141.81,644.807,147.235,638.042,147.509z"/>
				<path style="fill:none;stroke:#2E2854;stroke-linecap:round;stroke-linejoin:round;stroke-miterlimit:10;" d="M638.042,147.509
					c-56.422,2.292-112.953,1.891-169.334-1.203c-6.683-0.367-11.996-5.752-12.336-12.436c-1.53-29.969-1.875-52.856-1.518-80.841
					c0.09-7.035,5.723-12.761,12.756-12.942c56.865-1.47,113.683-1.778,169.392-0.058c6.852,0.212,12.401,5.634,12.727,12.481
					c1.3,27.321,2.288,54.701,0.841,82.539C650.217,141.81,644.807,147.235,638.042,147.509z"/>
			</g>
			<g>
				<rect x="478.977" y="63.527" style="fill:#D24D84;" width="74.027" height="5.567"/>
				<rect x="560.18" y="63.527" style="fill:#D24D84;" width="29.844" height="5.567"/>
			</g>
			<g>

					<line style="fill:none;stroke:#2E2854;stroke-linecap:round;stroke-linejoin:round;stroke-miterlimit:10;" x1="478.977" y1="81.351" x2="628.432" y2="81.351"/>

					<line style="fill:none;stroke:#2E2854;stroke-linecap:round;stroke-linejoin:round;stroke-miterlimit:10;" x1="478.977" y1="94.742" x2="628.432" y2="94.742"/>

					<line style="fill:none;stroke:#2E2854;stroke-linecap:round;stroke-linejoin:round;stroke-miterlimit:10;" x1="478.977" y1="108.132" x2="628.432" y2="108.132"/>

					<line style="fill:none;stroke:#2E2854;stroke-linecap:round;stroke-linejoin:round;stroke-miterlimit:10;" x1="478.977" y1="121.522" x2="571.097" y2="121.522"/>
			</g>
		</g>
		<g>
			<g>
				<path style="opacity:0.15;fill:#2E2854;" d="M129.37,176.678c-17.642,1.082-35.354,1.008-52.987-0.219
					c-6.856-0.478-12.326-5.906-12.804-12.762c-1.022-14.679-1.275-28.979-1.059-43.138c0.107-7.019,5.466-12.852,12.456-13.492
					c17.553-1.606,35.297-1.902,53.409-0.408c6.621,0.545,11.881,5.78,12.523,12.391c1.454,14.931,1.925,29.886,1.39,44.45
					C142.039,170.564,136.426,176.245,129.37,176.678z"/>
				<path style="fill:#FFFFFF;" d="M121.02,169.426c-17.642,1.082-35.354,1.009-52.987-0.219
					c-6.856-0.478-12.326-5.906-12.804-12.762c-1.022-14.679-1.275-28.978-1.059-43.138c0.107-7.019,5.466-12.852,12.456-13.492
					c17.553-1.606,35.297-1.901,53.409-0.408c6.62,0.545,11.881,5.78,12.523,12.391c1.454,14.931,1.925,29.886,1.391,44.45
					C133.689,163.313,128.077,168.994,121.02,169.426z"/>
				<path style="fill:none;stroke:#2E2854;stroke-linecap:round;stroke-linejoin:round;stroke-miterlimit:10;" d="M121.02,169.426
					c-17.642,1.082-35.354,1.009-52.987-0.219c-6.856-0.478-12.326-5.906-12.804-12.762c-1.022-14.679-1.275-28.978-1.059-43.138
					c0.107-7.019,5.466-12.852,12.456-13.492c17.553-1.606,35.297-1.901,53.409-0.408c6.62,0.545,11.881,5.78,12.523,12.391
					c1.454,14.931,1.925,29.886,1.391,44.45C133.689,163.313,128.077,168.994,121.02,169.426z"/>
			</g>
			<g>
				<rect x="73.018" y="115.062" style="fill:#D24D84;" width="9.541" height="38.497"/>
				<rect x="89.36" y="122.313" style="fill:#2E2854;" width="9.541" height="31.246"/>
				<rect x="105.703" y="129.564" style="fill:#2E2854;" width="9.541" height="23.995"/>
			</g>
		</g>
		<g>
			<g>
				<path style="opacity:0.15;fill:#2E2854;" d="M115.13,417.866c-12.31,0.352-24.638,0.051-36.917-0.902
					c-6.567-0.51-11.75-5.745-12.218-12.315c-0.939-13.186-1.181-26.118-0.839-38.977c0.183-6.854,5.658-12.357,12.501-12.769
					c13.01-0.786,26.142-0.453,39.451,1.403c6.368,0.887,11.167,6.301,11.32,12.728c0.308,12.855,0.099,25.676-0.461,38.258
					C127.659,412.192,122.034,417.667,115.13,417.866z"/>
				<path style="fill:#FFFFFF;" d="M105.489,409.889c-12.31,0.352-24.638,0.051-36.917-0.902c-6.567-0.51-11.75-5.745-12.218-12.315
					c-0.939-13.186-1.181-26.118-0.839-38.977c0.183-6.854,5.658-12.357,12.501-12.769c13.01-0.786,26.142-0.453,39.451,1.402
					c6.368,0.887,11.167,6.301,11.32,12.728c0.308,12.855,0.099,25.676-0.462,38.258
					C118.017,404.215,112.393,409.689,105.489,409.889z"/>
				<path style="fill:none;stroke:#2E2854;stroke-linecap:round;stroke-linejoin:round;stroke-miterlimit:10;" d="M105.489,409.889
					c-12.31,0.352-24.638,0.051-36.917-0.902c-6.567-0.51-11.75-5.745-12.218-12.315c-0.939-13.186-1.181-26.118-0.839-38.977
					c0.183-6.854,5.658-12.357,12.501-12.769c13.01-0.786,26.142-0.453,39.451,1.402c6.368,0.887,11.167,6.301,11.32,12.728
					c0.308,12.855,0.099,25.676-0.462,38.258C118.017,404.215,112.393,409.689,105.489,409.889z"/>
			</g>
			<g>
				<path style="fill:#5767BF;" d="M72.952,373.085c0-3.979,2.566-6.257,5.968-6.257c3.4,0,5.968,2.278,5.968,6.257
					c0,4.01-2.568,6.256-5.968,6.256C75.518,379.34,72.952,377.095,72.952,373.085z M92.106,367.149h5.421l-15.336,22.457H76.77
					L92.106,367.149z M80.331,373.085c0-2.15-0.706-2.791-1.411-2.791c-0.706,0-1.412,0.642-1.412,2.791
					c0,2.149,0.706,2.791,1.412,2.791C79.625,375.875,80.331,375.234,80.331,373.085z M89.411,383.671
					c0-3.978,2.566-6.256,5.967-6.256c3.402,0,5.968,2.278,5.968,6.256c0,4.011-2.566,6.257-5.968,6.257
					C91.977,389.928,89.411,387.682,89.411,383.671z M96.79,383.671c0-2.149-0.706-2.791-1.412-2.791
					c-0.705,0-1.411,0.642-1.411,2.791c0,2.15,0.706,2.792,1.411,2.792C96.084,386.463,96.79,385.821,96.79,383.671z"/>
			</g>
		</g>
		<g>
			<g>
				<path style="opacity:0.15;fill:#2E2854;" d="M688.224,315.129c-10.307,0.295-20.631,0.043-30.912-0.755
					c-5.499-0.427-9.839-4.81-10.23-10.311c-0.786-11.042-0.989-21.87-0.702-32.637c0.153-5.739,4.737-10.347,10.468-10.692
					c10.893-0.658,21.89-0.38,33.034,1.174c5.332,0.743,9.351,5.276,9.479,10.657c0.258,10.764,0.083,21.499-0.386,32.035
					C698.715,310.378,694.005,314.963,688.224,315.129z"/>
				<path style="fill:#FFFFFF;" d="M680.152,308.45c-10.307,0.295-20.631,0.043-30.912-0.755c-5.499-0.427-9.839-4.81-10.231-10.311
					c-0.786-11.042-0.989-21.87-0.702-32.637c0.153-5.739,4.737-10.347,10.468-10.692c10.893-0.658,21.89-0.38,33.034,1.174
					c5.332,0.743,9.351,5.276,9.479,10.657c0.258,10.764,0.083,21.499-0.386,32.035C690.642,303.698,685.933,308.283,680.152,308.45
					z"/>
				<path style="fill:none;stroke:#2E2854;stroke-linecap:round;stroke-linejoin:round;stroke-miterlimit:10;" d="M680.152,308.45
					c-10.307,0.295-20.631,0.043-30.912-0.755c-5.499-0.427-9.839-4.81-10.231-10.311c-0.786-11.042-0.989-21.87-0.702-32.637
					c0.153-5.739,4.737-10.347,10.468-10.692c10.893-0.658,21.89-0.38,33.034,1.174c5.332,0.743,9.351,5.276,9.479,10.657
					c0.258,10.764,0.083,21.499-0.386,32.035C690.642,303.698,685.933,308.283,680.152,308.45z"/>
			</g>
			<polygon style="fill:#76C9BF;" points="664.794,277.662 657.432,264.909 650.069,277.662 654.697,277.662 654.697,297.381
				660.167,297.381 660.167,277.662 			"/>
			<polygon style="fill:#D24D84;" points="664.794,284.629 672.157,297.381 679.519,284.629 674.891,284.629 674.891,264.909
				669.422,264.909 669.422,284.629 			"/>
		</g>
	</g>
	<g>
		<g>
			<path style="opacity:0.15;fill:#2E2854;" d="M480.075,127.974c-17.069-14.118-43.3-15.855-62.084-4.111
				c-18.788,11.744-28.718,36.082-23.504,57.614c5.211,21.533,25.171,38.637,47.249,40.488c22.077,1.851,44.609-11.691,53.333-32.05
				C503.796,169.548,498.586,143.282,480.075,127.974z"/>
			<path style="fill:#F7A145;" d="M472.835,119.992c-17.069-14.118-43.3-15.855-62.084-4.111
				c-18.788,11.744-28.719,36.082-23.504,57.614c5.211,21.533,25.171,38.637,47.249,40.488c22.077,1.851,44.609-11.691,53.333-32.05
				C496.557,161.567,491.346,135.3,472.835,119.992z"/>
			<path style="fill:#FF8330;" d="M461.356,127.657c-13.848-9.344-33.641-8.755-46.908,1.397
				c-13.264,10.148-19.007,29.102-13.612,44.909c5.399,15.806,21.533,27.289,38.237,27.206
				c16.701-0.087,32.726-11.727,37.965-27.585C482.277,157.721,476.849,138.111,461.356,127.657z"/>
			<g>
				<path style="fill:#F7A145;" d="M441.997,157.262c0.871,0.145,1.74,0.312,2.615,0.5c0.872,0.188,1.723,0.425,2.545,0.708
					c0.822,0.283,1.6,0.63,2.333,1.038s1.387,0.917,1.966,1.522c0.575,0.605,1.058,1.32,1.438,2.144
					c0.384,0.822,0.639,1.795,0.773,2.916c0.198,1.661,0.107,3.255-0.278,4.783s-1.055,2.92-2.005,4.179
					c-0.95,1.257-2.169,2.333-3.66,3.231c-1.487,0.896-3.238,1.543-5.247,1.943l0.072,3.292c0.024,0.493-0.137,0.96-0.487,1.401
					c-0.346,0.442-0.822,0.698-1.437,0.771l-2.99,0.357l-0.12-5.469c-2.051-0.091-4.042-0.445-5.969-1.057
					c-1.927-0.613-3.588-1.43-4.988-2.452l2.08-3.948c0.178-0.322,0.43-0.606,0.765-0.849c0.335-0.243,0.703-0.389,1.104-0.437
					c0.423-0.051,0.863,0.007,1.325,0.173c0.466,0.167,0.972,0.373,1.525,0.617c0.553,0.244,1.159,0.492,1.821,0.74
					c0.658,0.251,1.395,0.433,2.206,0.549l-0.207-10.007c-1.302-0.2-2.606-0.462-3.914-0.785c-1.308-0.323-2.507-0.827-3.602-1.513
					c-1.091-0.686-2.025-1.612-2.792-2.781c-0.767-1.167-1.265-2.686-1.488-4.559c-0.165-1.382-0.048-2.762,0.359-4.14
					c0.403-1.38,1.078-2.658,2.029-3.835c0.951-1.179,2.172-2.198,3.667-3.061c1.491-0.86,3.247-1.464,5.268-1.811l-0.061-2.947
					c-0.024-0.495,0.136-0.963,0.487-1.403c0.346-0.44,0.822-0.696,1.437-0.769l2.99-0.357l0.118,5.201
					c1.93,0.125,3.62,0.499,5.068,1.126c1.452,0.624,2.701,1.328,3.751,2.106l-1.646,3.151c-0.242,0.473-0.508,0.829-0.791,1.067
					c-0.28,0.237-0.63,0.381-1.053,0.431c-0.26,0.031-0.58,0.004-0.954-0.085c-0.374-0.087-0.782-0.199-1.222-0.333
					c-0.441-0.134-0.916-0.272-1.423-0.415c-0.502-0.146-1.036-0.264-1.597-0.355L441.997,157.262z M436.845,148.215
					c-0.792,0.22-1.445,0.484-1.967,0.794c-0.522,0.311-0.936,0.653-1.237,1.027c-0.298,0.373-0.505,0.775-0.614,1.204
					c-0.109,0.431-0.134,0.872-0.08,1.326c0.123,1.033,0.556,1.829,1.294,2.388c0.742,0.559,1.665,0.994,2.768,1.307
					L436.845,148.215z M442.334,173.482c2.831-0.816,4.085-2.573,3.764-5.266c-0.121-1.014-0.537-1.777-1.243-2.288
					c-0.71-0.509-1.611-0.901-2.709-1.18L442.334,173.482z"/>
			</g>
			<path style="opacity:0.15;fill:#2E2854;" d="M487.829,181.934c4.831-11.275,5.372-24.354,1.769-36.384
				c1.325,21.641-6.529,47.612-31.447,58.111c-25.595,10.784-45.13,1.798-56.309-5.036c8.792,8.585,20.391,14.33,32.654,15.359
				C456.573,215.835,479.105,202.293,487.829,181.934z"/>
			<path style="fill:#F5B878;" d="M410.751,115.881c-13.149,8.219-21.934,22.609-24.251,37.886
				c3.214-11.1,10.618-28.525,32.832-37.669c15.397-6.338,32.655-5.224,48.707,0.448
				C451.124,105.707,427.859,105.185,410.751,115.881z"/>
			<path style="fill:none;stroke:#2E2854;stroke-linecap:round;stroke-linejoin:round;stroke-miterlimit:10;" d="M461.356,127.657
				c-13.848-9.344-33.641-8.755-46.908,1.397c-13.264,10.148-19.007,29.102-13.612,44.909c5.399,15.806,21.533,27.289,38.237,27.206
				c16.701-0.087,32.726-11.727,37.965-27.585C482.277,157.721,476.849,138.111,461.356,127.657z"/>
		</g>
		<g>
			<path style="opacity:0.15;fill:#2E2854;" d="M676.492,358.942c-14.176-17.021-39.638-23.561-60.264-15.479
				c-20.63,8.081-34.874,30.174-33.716,52.298c1.155,22.124,17.623,42.612,38.981,48.5c21.359,5.887,45.999-3.273,58.325-21.676
				C692.148,404.175,691.866,377.398,676.492,358.942z"/>
			<path style="fill:#F7A145;" d="M670.671,350.382c-14.176-17.021-39.638-23.561-60.264-15.478
				c-20.63,8.081-34.874,30.173-33.716,52.298c1.155,22.124,17.623,42.613,38.981,48.5c21.358,5.887,45.999-3.272,58.325-21.676
				C686.327,395.615,686.045,368.838,670.671,350.382z"/>
			<path style="fill:#FF8330;" d="M657.976,355.8c-11.889-11.735-31.452-14.803-46.362-7.269
				c-14.906,7.531-24.043,25.103-21.652,41.633c2.395,16.53,16.137,30.789,32.571,33.784c16.431,2.992,34.326-5.497,42.397-20.119
				C673,389.204,671.278,368.93,657.976,355.8z"/>
			<path style="fill:none;stroke:#2E2854;stroke-linecap:round;stroke-linejoin:round;stroke-miterlimit:10;" d="M657.976,355.8
				c-11.889-11.735-31.452-14.803-46.362-7.269c-14.906,7.531-24.043,25.103-21.652,41.633c2.395,16.53,16.137,30.789,32.571,33.784
				c16.431,2.992,34.326-5.497,42.397-20.119C673,389.204,671.278,368.93,657.976,355.8z"/>
			<g>
				<path style="fill:#F7A145;" d="M633.494,381.332c0.829,0.303,1.652,0.627,2.478,0.973c0.822,0.346,1.615,0.735,2.371,1.164
					c0.756,0.43,1.456,0.914,2.102,1.451c0.645,0.536,1.195,1.157,1.652,1.858c0.453,0.7,0.797,1.493,1.019,2.372
					c0.226,0.879,0.297,1.882,0.222,3.009c-0.111,1.669-0.494,3.219-1.154,4.65c-0.66,1.43-1.575,2.675-2.74,3.738
					c-1.165,1.06-2.562,1.894-4.192,2.501c-1.627,0.607-3.467,0.92-5.516,0.943l-0.535,3.249c-0.067,0.489-0.311,0.919-0.737,1.287
					c-0.421,0.37-0.937,0.535-1.554,0.493l-3.004-0.2l0.89-5.398c-1.999-0.467-3.891-1.182-5.672-2.138
					c-1.781-0.957-3.263-2.067-4.451-3.329l2.772-3.497c0.234-0.284,0.534-0.516,0.908-0.694c0.374-0.178,0.762-0.253,1.166-0.226
					c0.425,0.028,0.847,0.166,1.27,0.414c0.427,0.25,0.886,0.546,1.385,0.887c0.499,0.341,1.049,0.697,1.654,1.063
					c0.601,0.368,1.291,0.683,2.067,0.946l1.64-9.874c-1.243-0.436-2.477-0.934-3.703-1.492c-1.226-0.558-2.312-1.275-3.262-2.151
					c-0.946-0.875-1.693-1.958-2.232-3.248c-0.539-1.288-0.748-2.873-0.623-4.755c0.092-1.388,0.461-2.724,1.116-4.003
					c0.65-1.282,1.549-2.414,2.701-3.396c1.152-0.984,2.539-1.76,4.168-2.333c1.624-0.571,3.461-0.84,5.511-0.81l0.483-2.908
					c0.067-0.491,0.311-0.921,0.737-1.289c0.421-0.368,0.936-0.532,1.554-0.491l3.004,0.2l-0.842,5.134
					c1.874,0.478,3.466,1.158,4.774,2.04c1.312,0.881,2.41,1.803,3.299,2.761l-2.199,2.793c-0.325,0.42-0.652,0.722-0.974,0.903
					c-0.318,0.181-0.69,0.258-1.115,0.23c-0.262-0.017-0.571-0.103-0.922-0.26c-0.352-0.155-0.732-0.34-1.14-0.552
					c-0.409-0.213-0.851-0.436-1.322-0.67c-0.467-0.236-0.97-0.45-1.505-0.643L633.494,381.332z M630.097,371.491
					c-0.819,0.07-1.51,0.21-2.08,0.418c-0.57,0.21-1.04,0.469-1.406,0.781c-0.362,0.312-0.64,0.669-0.826,1.07
					c-0.187,0.404-0.293,0.832-0.323,1.289c-0.069,1.038,0.21,1.9,0.832,2.586c0.627,0.686,1.453,1.284,2.48,1.795L630.097,371.491z
					 M630.838,397.337c2.933-0.281,4.489-1.776,4.669-4.482c0.068-1.019-0.2-1.845-0.8-2.478c-0.605-0.631-1.417-1.183-2.446-1.659
					L630.838,397.337z"/>
			</g>
			<path style="opacity:0.15;fill:#2E2854;" d="M673.997,414.025c6.826-10.192,9.766-22.947,8.441-35.436
				c-2.685,21.514-15.188,45.595-41.614,51.323c-27.143,5.884-44.689-6.547-54.418-15.323c7.06,10.058,17.402,17.842,29.266,21.112
				C637.031,441.588,661.671,432.429,673.997,414.025z"/>
			<path style="fill:#F5B878;" d="M610.406,334.903c-14.438,5.656-25.724,18.181-30.816,32.77
				c5.203-10.318,15.691-26.081,39.21-30.976c16.301-3.392,33.058,0.881,47.791,9.414
				C651.963,332.341,629.193,327.542,610.406,334.903z"/>
		</g>
	</g>
	<g>
		<defs>
			<path id="SVGID_1_" d="M526.286,422.114c-49.385,20.453-106.429,25.474-160.72,26.03c-66.999,0.688-135.969-4.161-196.515-32.857
				c-23.096-10.947-44.78-26.013-63.04-44.168V3.141h420.276V422.114z"/>
		</defs>
		<clipPath id="SVGID_00000032632867011465552710000005172860618551858102_">
			<use xlink:href="#SVGID_1_"  style="overflow:visible;"/>
		</clipPath>
		<path style="opacity:0.15;clip-path:url(#SVGID_00000032632867011465552710000005172860618551858102_);fill:#2E2854;" d="
			M518.66,253.922c0.156-1.184,0.403-2.247,0.153-3.262c-0.25-1.014-1.167-1.948-2.205-1.835c-0.76,0.081-1.359,0.674-1.837,1.272
			c-0.413,0.518-0.77,1.076-1.098,1.651c-0.029-0.023-0.059-0.043-0.088-0.066c0.177-0.706,0.342-1.413,0.494-2.11
			c0.174-0.796,0.557-1.902,0.266-3.02c-0.29-1.117-1.143-2.152-2.279-2.354c-1.042-0.187-2.108,0.36-2.822,1.144
			c-0.143,0.158-0.268,0.329-0.39,0.502c0.02-0.107,0.047-0.213,0.066-0.32c0.269-1.575-0.727-3.533-2.125-3.992
			c-1.131-0.371-2.369,0.043-3.302,0.811c-0.382-0.081-0.787-0.108-1.197-0.097c0.806-5.848,1.46-11.696,1.302-17.563
			c-0.033-1.157-0.112-2.37-0.716-3.359c-0.605-0.988-1.904-1.648-2.953-1.16c-0.86,0.4-1.261,1.381-1.577,2.276
			c-2.432,6.865-4.512,13.852-6.252,20.923l-1.255,0.142c-1.883,0.214-3.883,0.476-5.341,1.687
			c-1.543,1.283-2.143,3.347-2.666,5.285c-1.739,6.462-3.48,12.925-5.221,19.388c-0.162-0.06-0.323-0.126-0.485-0.186
			c-1.13,2.453-2.267,4.925-3.428,7.4c-5.903,12.581-12.423,25.242-21.71,35.883c-4.398,5.04-10.139,9.874-16.82,9.638
			c-4.611-0.163-8.87-2.82-11.861-6.335c-2.991-3.515-4.871-7.83-6.449-12.169c-9.078-24.963-9.852-53.559-25.551-74.98
			c-5.578-7.613-12.777-13.851-20.789-18.883c-4.675-2.936-9.628-5.461-14.697-7.608c-4.497-1.904-9.101-3.511-13.763-4.943
			l0.016-0.018l-19.628-11.707c0.074-4.521,0.147-9.041,0.221-13.562c4.61-0.69,9.111-2.053,13.307-4.122
			c8.818-4.348,16.142-11.661,21.086-20.16c4.488,0.692,9.27-0.637,12.927-3.388c4.375-3.292,7.187-8.415,8.241-13.79
			c0.695-3.537,0.658-7.291-0.655-10.648c-1.313-3.358-4.013-6.264-7.458-7.318c-0.55-0.168-1.12-0.263-1.694-0.324
			c1.747-5.252,3.321-10.57,4.111-15.749c1.466-9.605,1.361-19.613-1.751-28.816c-6.511-19.251-26.293-32.511-46.578-33.492
			c-20.284-0.981-40.25,9.264-53.272,24.858c-8.629,1.943-16.906,11.636-19.264,22.019c-2.107,9.271-0.437,18.916,1.661,27.948
			c-3.104,0.184-6.196,1.229-8.722,3.086c-5.986,4.402-8.308,12.916-6.021,19.989c2.288,7.073,8.715,12.454,15.944,14.168
			c5.662,1.342,11.688,0.555,17.045-1.767c2.873,5.969,6.703,11.405,11.624,15.897c5.352,4.884,11.876,8.346,18.84,10.293
			c-0.182,3.852-0.363,7.705-0.545,11.557l-21.589,7.52c0.004,0.004,0.008,0.008,0.012,0.011
			c-18.807,1.71-37.114,6.726-53.96,14.634c-19.127,8.979-36.371,21.672-50.325,37.438c-12.818,14.481-23.09,31.719-26.735,50.718
			c-4.61,24.026,2.037,49.786,16.936,69.183c12.332,16.056,30.051,27.669,49.478,33.39c-0.035,19.447,0.257,38.684,1.048,57.666
			c0.379,1.291,55.809,2.263,102.156,2.851v0v0c33.374,0.423,62.04,0.647,62.04,0.647c1.428-31.259,1.802-62.566,1.145-93.852
			c4.711,4.3,10.217,7.759,16.151,10.058c15.243,5.907,32.766,4.647,47.779-1.822c15.013-6.469,27.606-17.837,37.108-31.146
			c9.503-13.308,16.064-28.524,21.031-44.109c-0.458-0.353-0.932-0.69-1.396-1.037c1.684-3.177,3.145-6.473,4.308-9.877
			c-0.565-0.388-1.126-0.747-1.69-1.122c5.003-7.029,8.764-14.93,11.075-23.244C517.446,258.585,518.348,256.295,518.66,253.922z
			 M206.678,339.795c-4.276-5.292-5.415-12.46-5.445-19.265c-0.075-17.031,6.184-33.943,16.991-47.07
			c-0.18,5.405-0.361,10.814-0.541,16.2v0c-0.639,19.134-1.249,38.146-1.693,57.002C212.42,345.003,209.136,342.838,206.678,339.795
			z"/>
		<g style="clip-path:url(#SVGID_00000032632867011465552710000005172860618551858102_);">
			<g>
				<g>
					<path style="fill:#E8614E;" d="M285.592,167.441c-0.394,12-0.787,24.001-1.181,36.003c0,0,20.657-1.36,21.592-1.504
						c0.023-12.008,0.046-24.017,0.069-36.027L285.592,167.441z"/>
					<path style="fill:#D15046;" d="M285.141,181.183c5.141,1.371,12.651,2.432,20.901,0.507c0.01-5.259,0.02-10.518,0.03-15.777
						l-20.48,1.528C285.441,172.021,285.291,176.603,285.141,181.183z"/>
				</g>
				<g>
					<path style="fill:#E8614E;" d="M343.016,117.422c2.087-2.939,6.203-4.067,9.665-3.063c3.462,1.004,6.206,3.871,7.568,7.209
						c1.362,3.338,1.453,7.091,0.808,10.638c-0.977,5.39-3.717,10.553-8.048,13.908c-4.331,3.354-10.304,4.708-15.498,2.972
						L343.016,117.422z"/>
					<path style="fill:#2E2854;" d="M346.688,127.313c2.839-9.292,6.853-19.436,8.181-29.061c1.329-9.625,1.08-19.63-2.166-28.788
						c-6.792-19.155-26.777-32.128-47.09-32.816c-20.311-0.688-40.144,9.845-52.95,25.625c-8.607,2.067-16.75,11.879-18.961,22.295
						c-2.212,10.416,0.321,21.234,2.877,31.133c0.572,8.468,3.045,16.802,8.998,25.605
						C278.654,151.4,314.124,150.163,346.688,127.313z"/>
					<g>
						<path style="fill:#E8614E;" d="M247.225,116.65c-5.035-5.469-14.215-5.437-20.142-0.949
							c-5.927,4.488-8.128,13.034-5.738,20.074c2.391,7.039,8.9,12.327,16.158,13.936c7.257,1.608,15.065-0.248,21.273-4.337
							L247.225,116.65z"/>
						<g>
							<path style="fill:none;stroke:#2E2854;stroke-linecap:round;stroke-linejoin:round;stroke-miterlimit:10;" d="
								M230.002,130.455c2.942-3.185,7.785-4.46,11.915-3.138"/>
							<path style="fill:none;stroke:#2E2854;stroke-linecap:round;stroke-linejoin:round;stroke-miterlimit:10;" d="
								M235.847,127.123c0.544,3.673,2.21,7.176,4.735,9.904"/>
						</g>
					</g>
					<g>
						<path style="fill:#E8614E;" d="M346.661,124.501c-0.19-5.148-1.491-10.251-3.788-14.862
							c-9.142,4.642-19.547,6.293-29.205,4.227c-9.66-2.065-18.48-7.825-24.255-15.839c-1.577,5.01-6.544,9.208-12.285,10.763
							c-5.741,1.557-12.149,0.44-17.026-2.964c0.215,3.78-0.473,8.019-1.62,12.131c-0.399,1.431-0.941,2.965-2.197,3.759
							c-1.633,1.032-3.907,0.346-5.249-1.042c-1.342-1.39-1.966-3.303-3.813-4.023c0.453,17.329,6.193,35.279,19.169,46.775
							c14.138,12.526,36.096,15.316,52.918,6.724C336.135,161.559,347.311,142.122,346.661,124.501z"/>
						<g>
							<path style="fill:#D15046;" d="M338.568,152.288c-0.417-0.689-0.9-1.34-1.462-1.928c-3.415-3.571-9.19-4.623-13.645-2.485
								c-4.454,2.138-7.247,7.301-6.597,12.2c0.454,3.419,2.563,6.522,5.446,8.393C328.864,164.457,334.422,158.78,338.568,152.288z
								"/>
							<path style="fill:#D15046;" d="M279.067,164.118c2.367-4.339,1.641-10.185-1.832-13.816
								c-3.415-3.571-9.19-4.623-13.645-2.485c-2.498,1.199-4.472,3.35-5.611,5.871c2.372,3.576,5.167,6.859,8.415,9.737
								c2.365,2.095,4.952,3.911,7.693,5.453C276.165,167.811,277.947,166.172,279.067,164.118z"/>
						</g>
						<g>
							<path style="fill:none;stroke:#2E2854;stroke-linecap:round;stroke-linejoin:round;stroke-miterlimit:10;" d="
								M305.558,122.557c2.112,2.006,3.815,4.439,4.981,7.108l-5.154,1.012"/>
							<path style="fill:none;stroke:#2E2854;stroke-linecap:round;stroke-linejoin:round;stroke-miterlimit:10;" d="
								M271.861,125.295c2.162-1.87,5.052-2.874,7.907-2.745c2.856,0.129,5.644,1.388,7.629,3.445"/>
							<path style="fill:none;stroke:#2E2854;stroke-linecap:round;stroke-linejoin:round;stroke-miterlimit:10;" d="
								M333.048,125.963c-2.091-1.949-4.942-3.06-7.8-3.037c-2.858,0.023-5.692,1.178-7.751,3.16"/>
							<path style="fill:none;stroke:#2E2854;stroke-linecap:round;stroke-linejoin:round;stroke-miterlimit:10;" d="
								M287.119,140.932c4.396,2.784,9.666,4.163,14.862,3.891c5.196-0.273,10.293-2.196,14.373-5.424"/>
						</g>
					</g>
				</g>
			</g>
			<g>
				<g>
					<g>
						<g>
							<path style="fill:#E8614E;" d="M489.055,284.734c6.554-8.994,11.048-19.478,13.042-30.425
								c-4.935-4.743-10.116-7.736-15.661-9.71c0.879-6.821,1.696-13.639,1.415-20.466c-0.049-1.157-0.146-2.368-0.764-3.349
								c-0.619-0.979-1.929-1.62-2.972-1.117c-0.855,0.413-1.242,1.399-1.546,2.299c-3.002,8.87-5.437,17.93-7.285,27.109
								l-7.168,26.064L489.055,284.734z"/>
							<path style="fill:none;stroke:#2E2854;stroke-linecap:round;stroke-linejoin:round;stroke-miterlimit:10;" d="
								M486.436,244.598c0.879-6.821,1.696-13.639,1.415-20.466c-0.049-1.157-0.146-2.368-0.764-3.349
								c-0.619-0.979-1.929-1.62-2.972-1.117c-0.855,0.413-1.242,1.399-1.546,2.299c-3.002,8.87-5.437,17.93-7.285,27.109"/>
						</g>
						<g>
							<path style="fill:#E8614E;" d="M503.341,253.15c-0.297,2.537-1.26,4.993-2.766,7.058c-0.326,0.446-0.687,0.882-1.162,1.163
								c-0.475,0.28-1.089,0.381-1.582,0.132c-0.646-0.327-0.892-1.115-1.014-1.83c-0.613-3.588,0.346-7.416,2.577-10.292
								c0.469-0.604,1.06-1.206,1.82-1.298c1.037-0.128,1.967,0.792,2.233,1.803C503.713,250.897,503.481,251.964,503.341,253.15z"
								/>
							<path style="fill:none;stroke:#2E2854;stroke-linecap:round;stroke-linejoin:round;stroke-miterlimit:10;" d="
								M503.341,253.15c-0.297,2.537-1.26,4.993-2.766,7.058c-0.326,0.446-0.687,0.882-1.162,1.163
								c-0.475,0.28-1.089,0.381-1.582,0.132c-0.646-0.327-0.892-1.115-1.014-1.83c-0.613-3.588,0.346-7.416,2.577-10.292
								c0.469-0.604,1.06-1.206,1.82-1.298c1.037-0.128,1.967,0.792,2.233,1.803C503.713,250.897,503.481,251.964,503.341,253.15z"
								/>
						</g>
						<g>
							<path style="fill:#E8614E;" d="M498.696,248.866c-0.79,3.882-1.783,8.104-4.916,10.528c-0.468,0.363-1.012,0.686-1.604,0.681
								c-0.682-0.007-1.299-0.467-1.65-1.05c-0.35-0.584-0.473-1.276-0.524-1.956c-0.249-3.305,1.028-6.514,2.28-9.582
								c0.401-0.983,0.815-1.984,1.517-2.779c0.703-0.794,1.762-1.356,2.807-1.185c1.14,0.186,2.007,1.208,2.314,2.321
								C499.225,246.956,498.859,248.068,498.696,248.866z"/>
							<path style="fill:none;stroke:#2E2854;stroke-linecap:round;stroke-linejoin:round;stroke-miterlimit:10;" d="
								M498.696,248.866c-0.79,3.882-1.783,8.104-4.916,10.528c-0.468,0.363-1.012,0.686-1.604,0.681
								c-0.682-0.007-1.299-0.467-1.65-1.05c-0.35-0.584-0.473-1.276-0.524-1.956c-0.249-3.305,1.028-6.514,2.28-9.582
								c0.401-0.983,0.815-1.984,1.517-2.779c0.703-0.794,1.762-1.356,2.807-1.185c1.14,0.186,2.007,1.208,2.314,2.321
								C499.225,246.956,498.859,248.068,498.696,248.866z"/>
						</g>
						<g>
							<path style="fill:#E8614E;" d="M493.476,244.893c-0.633,4.056-2.346,7.938-4.916,11.139
								c-0.613,0.762-1.443,1.555-2.413,1.423c-0.714-0.097-1.278-0.705-1.523-1.382c-0.247-0.679-0.23-1.421-0.183-2.141
								c0.161-2.533,0.647-5.036,1.257-7.5c0.355-1.429,0.773-2.894,1.698-4.038c0.927-1.146,2.488-1.9,3.895-1.461
								C492.698,241.372,493.723,243.315,493.476,244.893z"/>
							<path style="fill:none;stroke:#2E2854;stroke-linecap:round;stroke-linejoin:round;stroke-miterlimit:10;" d="
								M493.476,244.893c-0.633,4.056-2.346,7.938-4.916,11.139c-0.613,0.762-1.443,1.555-2.413,1.423
								c-0.714-0.097-1.278-0.705-1.523-1.382c-0.247-0.679-0.23-1.421-0.183-2.141c0.161-2.533,0.647-5.036,1.257-7.5
								c0.355-1.429,0.773-2.894,1.698-4.038c0.927-1.146,2.488-1.9,3.895-1.461C492.698,241.372,493.723,243.315,493.476,244.893z"
								/>
						</g>
						<g>
							<path style="fill:#E8614E;" d="M462.299,270.482c1.716-6.753,3.433-13.506,5.148-20.258c0.495-1.946,1.067-4.019,2.592-5.323
								c1.441-1.232,3.439-1.523,5.32-1.764l10.411-1.333c1.27-0.162,2.765-0.244,3.606,0.719c0.743,0.851,0.599,2.216-0.044,3.144
								c-0.644,0.928-1.669,1.509-2.684,2.005c-3.227,1.578-6.686,2.617-10.369,4.322c2.72,0.177,5.079,2.117,6.465,4.462
								c1.387,2.346,1.964,5.07,2.478,7.746l-17.107,10.935L462.299,270.482z"/>
							<path style="fill:none;stroke:#2E2854;stroke-linecap:round;stroke-linejoin:round;stroke-miterlimit:10;" d="
								M462.806,268.486c1.547-6.088,3.095-12.175,4.641-18.262c0.495-1.946,1.067-4.019,2.592-5.323
								c1.441-1.232,3.439-1.523,5.32-1.764l10.411-1.333c1.27-0.162,2.765-0.244,3.606,0.719c0.743,0.851,0.599,2.216-0.044,3.144
								c-0.644,0.928-1.669,1.509-2.684,2.005c-3.227,1.578-6.686,2.617-10.369,4.322c2.72,0.177,5.079,2.117,6.465,4.462
								c1.387,2.346,1.964,5.07,2.478,7.746"/>
						</g>
					</g>
					<path style="fill:#FFFFFF;" d="M484.755,299.382c2.953-4.712,5.326-9.786,7.05-15.072
						c-10.025-6.675-19.722-11.271-29.792-14.803c-1.095,2.469-2.198,4.957-3.324,7.448L484.755,299.382z"/>
					<g>
						<path style="fill:#5767BF;" d="M352.76,338.869c3.374,16.007,16.069,29.308,31.408,34.994
							c15.338,5.686,32.854,4.173,47.784-2.512c14.93-6.685,27.368-18.234,36.685-31.679c9.318-13.444,15.665-28.753,20.411-44.408
							c-9.28-6.939-19.8-12.644-30.36-18.31c-5.726,12.665-12.069,25.419-21.209,36.193c-4.329,5.103-10.004,10.02-16.693,9.88
							c-4.616-0.096-8.917-2.691-11.96-6.163c-3.043-3.471-4.987-7.759-6.628-12.075c-9.442-24.829-10.628-53.411-26.645-74.604
							c-5.691-7.531-12.984-13.665-21.073-18.58L352.76,338.869z"/>
						<path style="opacity:0.15;fill:#2E2854;" d="M431.952,371.352c14.93-6.685,27.368-18.234,36.685-31.679
							c2.859-4.125,5.436-8.428,7.776-12.86c-14.501,13.553-36.984,29.238-62.571,28.096c-33.077-1.477-52.523-47.331-60.34-70.827
							l-0.741,54.788c3.374,16.007,16.069,29.308,31.408,34.994C399.505,379.55,417.022,378.036,431.952,371.352z"/>
						<path style="fill:#2E2854;" d="M462.973,289.877c-1.91-0.856-4.416-0.038-5.429,1.794c-1.015,1.832-0.366,4.407,1.408,5.517
							c1.776,1.112,4.394,0.556,5.545-1.193C465.647,294.246,465.476,291,462.973,289.877z"/>
						<path style="fill:none;stroke:#2E2854;stroke-linecap:round;stroke-linejoin:round;stroke-miterlimit:10;" d="M352.76,338.869
							c3.374,16.007,16.069,29.308,31.408,34.994c15.338,5.686,32.854,4.173,47.784-2.512c14.93-6.685,27.368-18.234,36.685-31.679
							c9.318-13.444,15.665-28.753,20.411-44.408c-9.28-6.939-19.8-12.644-30.36-18.31"/>
					</g>
				</g>
				<g>
					<path style="fill:#5767BF;" d="M362.428,280.566c5.607,58.914,7.49,118.182,5.636,177.332c0,0-163.669,1.085-164.354-1.126
						c-3.388-60.39-1.764-123.429-0.572-187.622l6.609-60.886c26.388-12.846,56.511-18.591,86.63-15.466
						c14.69,2.765,29.438,5.787,43.288,11.413c5.103,2.074,10.095,4.527,14.816,7.395L362.428,280.566z"/>
					<path style="fill:#E8614E;" d="M300.557,228.261l21.601-29.836c-8.484-2.281-17.142-4.001-25.78-5.627
						c-9.27-0.962-18.539-1.076-27.7-0.409L300.557,228.261z"/>
					<path style="fill:#FFFFFF;" d="M322.158,198.425c0,0-9.211,9.984-22.988,9.84c-13.777-0.144-30.492-15.876-30.492-15.876
						l31.88,35.872L322.158,198.425z"/>
					<g>
						<path style="fill:#2E2854;" d="M320.855,253.085c-1.91-0.857-4.415-0.038-5.429,1.793c-1.015,1.831-0.365,4.407,1.409,5.518
							c1.775,1.111,4.393,0.554,5.544-1.193C323.53,257.453,323.358,254.207,320.855,253.085z"/>
						<path style="fill:#2E2854;" d="M320.087,294.397c-1.91-0.857-4.415-0.039-5.429,1.793c-1.015,1.831-0.365,4.407,1.409,5.517
							c1.775,1.112,4.393,0.556,5.543-1.192C322.762,298.764,322.59,295.519,320.087,294.397z"/>
					</g>
					<g>
						<path style="fill:none;stroke:#2E2854;stroke-linecap:round;stroke-linejoin:round;stroke-miterlimit:10;" d="
							M300.557,228.261c3.501,75.7,5.308,153.98,5.417,229.887"/>
						<g>
							<path style="fill:#5767BF;" d="M263.521,192.841c12.446,11.902,24.592,23.517,37.037,35.419l-15.542-43.251L263.521,192.841z
								"/>
							<path style="fill:none;stroke:#2E2854;stroke-linecap:round;stroke-linejoin:round;stroke-miterlimit:10;" d="
								M263.521,192.841c12.446,11.902,24.592,23.517,37.037,35.419l-15.542-43.251L263.521,192.841z"/>
						</g>
						<g>
							<polygon style="fill:#5767BF;" points="325.838,199.449 300.557,228.261 306.029,188.027 							"/>
							<polygon style="fill:none;stroke:#2E2854;stroke-linecap:round;stroke-linejoin:round;stroke-miterlimit:10;" points="
								325.838,199.449 300.557,228.261 306.029,188.027 							"/>
						</g>
					</g>
					<path style="opacity:0.15;fill:#2E2854;" d="M367.074,345.225c-9.489-25.935-30.554-49.087-65.121-51.575
						c-51.368-3.698-72.644,56.071-72.644,56.071l-27.438-5.894c-0.244,22.033-0.279,43.853,0.124,65.397
						c17.104,0.964,29.366-1.672,29.366-1.672s24.668,33.956,66.698,38.129c33.949,3.371,60.62-15.958,70.651-42.634
						C368.563,383.764,368.015,364.485,367.074,345.225z"/>
					<path style="opacity:0.15;fill:#2E2854;" d="M213.737,266.181c0,0-4.834,1.289-10.59,2.9l-0.008,0.069
						c-0.15,8.047-0.306,16.075-0.458,24.083L213.737,266.181z"/>
					<path style="fill:none;stroke:#2E2854;stroke-linecap:round;stroke-linejoin:round;stroke-miterlimit:10;" d="M362.428,280.566
						c5.607,58.914,7.49,118.182,5.636,177.332"/>
				</g>
				<g>
					<path style="fill:#F7A145;" d="M344.055,315.147c-21.523-18.565-55.129-21.489-79.538-6.922
						c-24.415,14.567-37.8,45.527-31.682,73.289c6.114,27.763,31.267,50.234,59.541,53.196
						c28.274,2.961,57.538-13.814,69.271-39.702C373.384,369.112,367.396,335.277,344.055,315.147z"/>
					<path style="fill:#FF8330;" d="M329.125,324.675c-17.517-12.355-42.925-12.124-60.214,0.547
						c-17.285,12.667-25.156,36.83-18.654,57.252c6.507,20.421,26.9,35.58,48.332,35.916c21.428,0.332,42.295-14.176,49.436-34.381
						C355.166,363.8,348.723,338.498,329.125,324.675z"/>
					<g>
						<path style="fill:#F7A145;" d="M303.503,362.141c1.113,0.209,2.224,0.446,3.342,0.711c1.113,0.265,2.199,0.59,3.246,0.975
							c1.047,0.385,2.036,0.851,2.965,1.394c0.93,0.543,1.755,1.214,2.482,2.005c0.721,0.791,1.323,1.722,1.788,2.788
							c0.471,1.065,0.772,2.32,0.914,3.762c0.211,2.136,0.051,4.179-0.483,6.128s-1.431,3.718-2.683,5.308
							c-1.252,1.587-2.844,2.936-4.781,4.048c-1.932,1.11-4.195,1.894-6.783,2.353l0.005,4.226c0.018,0.633-0.201,1.228-0.662,1.784
							c-0.455,0.558-1.073,0.874-1.864,0.951l-3.845,0.379l-0.009-7.02c-2.629-0.171-5.174-0.678-7.63-1.514
							c-2.456-0.837-4.565-1.93-6.334-3.278l2.773-5.009c0.237-0.409,0.568-0.766,1.004-1.069c0.436-0.303,0.912-0.48,1.428-0.531
							c0.544-0.054,1.107,0.032,1.695,0.257c0.594,0.227,1.237,0.505,1.939,0.832c0.703,0.327,1.474,0.662,2.316,0.998
							c0.838,0.339,1.778,0.593,2.815,0.763l0-12.844c-1.665-0.291-3.332-0.662-5.001-1.11s-3.194-1.128-4.581-2.036
							c-1.382-0.909-2.555-2.122-3.508-3.642c-0.954-1.517-1.552-3.48-1.789-5.888c-0.175-1.777,0.011-3.545,0.57-5.302
							c0.553-1.76,1.453-3.382,2.704-4.866c1.251-1.487,2.845-2.762,4.786-3.829c1.936-1.064,4.205-1.792,6.806-2.184l-0.001-3.782
							c-0.018-0.636,0.201-1.231,0.662-1.787c0.455-0.555,1.073-0.871,1.864-0.949l3.845-0.378l0.013,6.675
							c2.472,0.212,4.631,0.737,6.472,1.578c1.846,0.839,3.43,1.775,4.757,2.801l-2.196,3.998c-0.324,0.6-0.673,1.051-1.043,1.348
							c-0.365,0.297-0.819,0.472-1.363,0.525c-0.335,0.033-0.744-0.01-1.222-0.135c-0.478-0.122-0.998-0.276-1.559-0.459
							c-0.562-0.183-1.168-0.373-1.814-0.57c-0.641-0.2-1.323-0.366-2.04-0.498L303.503,362.141z M297.135,350.399
							c-1.022,0.261-1.867,0.583-2.544,0.966c-0.677,0.386-1.218,0.813-1.615,1.285c-0.392,0.471-0.669,0.981-0.82,1.528
							c-0.151,0.55-0.195,1.115-0.138,1.699c0.131,1.329,0.665,2.361,1.597,3.098c0.938,0.737,2.11,1.32,3.516,1.75L297.135,350.399
							z M303.506,382.959c3.653-0.972,5.309-3.193,4.968-6.656c-0.128-1.304-0.641-2.294-1.534-2.968
							c-0.898-0.671-2.042-1.199-3.445-1.585L303.506,382.959z"/>
					</g>
					<path style="opacity:0.15;fill:#2E2854;" d="M361.647,395.009c6.497-14.336,7.538-31.1,3.234-46.63
						c1.125,27.798-9.639,60.908-41.884,73.716c-33.121,13.155-57.945,1.11-72.105-7.954c11.051,11.247,25.779,18.925,41.484,20.57
						C320.65,437.671,349.914,420.896,361.647,395.009z"/>
					<path style="fill:#F5B878;" d="M264.517,308.225c-17.086,10.195-28.739,28.423-32.117,47.961
						c4.417-14.155,14.378-36.313,43.119-47.454c19.921-7.722,42.031-5.835,62.474,1.867
						C316.581,296.245,286.749,294.958,264.517,308.225z"/>
					<path style="fill:none;stroke:#2E2854;stroke-linecap:round;stroke-linejoin:round;stroke-miterlimit:10;" d="M329.125,324.675
						c-17.517-12.355-42.925-12.124-60.214,0.547c-17.285,12.667-25.156,36.83-18.654,57.252c6.507,20.421,26.9,35.58,48.332,35.916
						c21.428,0.332,42.295-14.176,49.436-34.381C355.166,363.8,348.723,338.498,329.125,324.675z"/>
				</g>
				<g>
					<g>
						<path style="fill:#E8614E;" d="M230.41,396.018c13.476,0.786,27.04,0.052,40.349-2.202c7.2,0.769,12.315,0.342,17.114-1.125
							c0.639-0.196,1.288-0.418,1.808-0.839c0.518-0.422,0.889-1.085,0.786-1.746c-0.184-1.19-1.622-1.656-2.808-1.856
							c-2.811-0.474-5.641-0.835-8.48-1.083l0-0.004c5.621-0.087,11.222-1.674,16.028-4.594c0.864-0.525,1.783-1.213,1.918-2.216
							c0.142-1.059-0.709-2.049-1.707-2.433c-0.999-0.384-2.106-0.305-3.172-0.221c-3.529,0.279-7.057,0.558-10.585,0.837
							c4.843-1.113,9.521-2.944,13.826-5.427c0.94-0.542,1.891-1.142,2.495-2.043c0.604-0.902,0.769-2.184,0.11-3.046
							c-0.848-1.109-2.512-1.033-3.895-0.847c-3.723,0.498-7.446,0.997-11.169,1.496c4.468-1.141,8.823-2.721,12.979-4.717
							c1.658-0.797,3.56-2.211,3.138-4c-0.237-1.001-1.196-1.703-2.197-1.942c-1.001-0.239-2.049-0.102-3.069,0.035
							c-9.31,1.253-18.62,2.506-27.931,3.76c3.886-2.297,7.386-4.367,10.349-7.036c0.645-0.582,1.283-1.217,1.613-2.021
							c0.332-0.806,0.286-1.822-0.322-2.443c-0.862-0.877-2.315-0.596-3.493-0.245c-5.036,1.5-10.048,3.085-14.993,4.859
							c-6.581,2.359-14.963,3.065-23.754,2.573l-4.369,21.046L230.41,396.018z"/>
						<g>
							<path style="fill:none;stroke:#2E2854;stroke-linecap:round;stroke-linejoin:round;stroke-miterlimit:10;" d="
								M283.03,368.668c-3.38,0.863-6.823,1.475-10.294,1.824"/>
							<path style="fill:none;stroke:#2E2854;stroke-linecap:round;stroke-linejoin:round;stroke-miterlimit:10;" d="
								M275.146,379.587c2.192-0.206,4.37-0.558,6.516-1.052"/>
							<path style="fill:none;stroke:#2E2854;stroke-linecap:round;stroke-linejoin:round;stroke-miterlimit:10;" d="
								M274.956,386.943c1.401,0.17,2.813,0.243,4.224,0.221"/>
							<path style="fill:none;stroke:#2E2854;stroke-linecap:round;stroke-linejoin:round;stroke-miterlimit:10;" d="
								M233.491,396.171c12.46,0.512,24.973-0.273,37.269-2.355c7.2,0.769,12.315,0.342,17.114-1.125
								c0.639-0.196,1.288-0.418,1.808-0.839c0.518-0.422,0.889-1.085,0.786-1.746c-0.184-1.19-1.622-1.656-2.808-1.856
								c-2.811-0.474-5.641-0.835-8.48-1.083l0-0.004c5.621-0.087,11.222-1.674,16.028-4.594c0.864-0.525,1.783-1.213,1.918-2.216
								c0.142-1.059-0.709-2.049-1.707-2.433c-0.999-0.384-2.106-0.305-3.172-0.221c-3.529,0.279-7.057,0.558-10.585,0.837
								c4.843-1.113,9.521-2.944,13.826-5.427c0.94-0.542,1.891-1.142,2.495-2.043c0.604-0.902,0.769-2.184,0.11-3.046
								c-0.848-1.109-2.512-1.033-3.895-0.847c-3.723,0.498-7.446,0.997-11.169,1.496c4.468-1.141,8.823-2.721,12.979-4.717
								c1.658-0.797,3.56-2.211,3.138-4c-0.237-1.001-1.196-1.703-2.197-1.942c-1.001-0.239-2.049-0.102-3.069,0.035
								c-9.31,1.253-18.62,2.506-27.931,3.76c3.886-2.297,7.386-4.367,10.349-7.036c0.645-0.582,1.283-1.217,1.613-2.021
								c0.332-0.806,0.286-1.822-0.322-2.443c-0.862-0.877-2.315-0.596-3.493-0.245c-5.036,1.5-10.048,3.085-14.993,4.859
								c-2.502,0.897-5.265,1.555-8.211,1.999"/>
						</g>
					</g>
					<path style="fill:#FFFFFF;" d="M210.3,393.698c6.653,1.153,13.37,1.927,20.11,2.32c3.903-12.416,5.584-25.529,4.939-38.528
						c-3.843-0.215-7.765-0.659-11.648-1.293L210.3,393.698z"/>
					<g>
						<path style="fill:#5767BF;" d="M213.737,266.181c-17.204,13.931-27.489,36.022-27.074,58.156
							c0.128,6.804,1.37,13.955,5.725,19.185c3.98,4.783,10.019,7.317,15.972,9.126c4.848,1.472,10.059,2.687,15.34,3.55
							l0.001-0.008c-0.853,14.902-3.544,29.732-9.505,45.569c-24.21-3.513-47.166-16.122-62.353-35.304
							c-15.187-19.179-22.208-44.841-17.941-68.931c3.375-19.049,13.406-36.434,26.024-51.099
							c13.736-15.965,30.809-28.906,49.82-38.161L213.737,266.181z"/>
						<path style="opacity:0.15;fill:#2E2854;" d="M216.895,393.948c-52.734-21.711-74.959-55.737-84.042-76.851
							c1.145,17.82,7.878,35.325,18.991,49.358c15.187,19.181,38.142,31.79,62.353,35.304
							C215.186,399.128,216.078,396.527,216.895,393.948z"/>
						<path style="fill:#2E2854;" d="M206.839,384.335c-1.91-0.856-4.415-0.038-5.429,1.794c-1.014,1.832-0.365,4.407,1.409,5.517
							c1.775,1.112,4.394,0.556,5.545-1.193C209.514,388.703,209.342,385.458,206.839,384.335z"/>
						<path style="fill:none;stroke:#2E2854;stroke-linecap:round;stroke-linejoin:round;stroke-miterlimit:10;" d="M223.702,356.19
							c-0.853,14.902-3.544,29.732-9.505,45.569c-24.21-3.513-47.166-16.122-62.353-35.304
							c-15.187-19.179-22.208-44.841-17.941-68.931"/>
					</g>
				</g>
			</g>
		</g>
	</g>
	<g>
		<path style="fill:#B54774;" d="M654.979,206.48c-34.665-10.069-69.328-20.138-103.993-30.206l5.562-15.688l64.7,1.607
			l51.378,32.568L654.979,206.48z"/>
		<path style="fill:#D24D84;" d="M672.626,194.762c-9.193-31.951-21.014-63.146-35.305-93.164
			c-28.648,17.029-55.435,37.166-80.773,58.989c0.098-0.087,23.321,6.738,48.965,14.31l-85.507,231.39l-72.8-34.485l-54.798,85.234
			l-237.802,2.786l0.223,18.994l248.028-2.905l51.302-79.797l76.471,36.224l93.142-252.045
			C649.426,187.879,672.626,194.762,672.626,194.762z"/>
		<polygon style="fill:#E06799;" points="392.408,457.035 389.13,432.458 179.372,433.167 154.606,459.821 		"/>
		<polygon style="fill:#E07DA6;" points="445.087,348.614 447.206,371.801 392.408,457.035 389.13,432.458 		"/>
		<polygon style="fill:#E06799;" points="506.681,377.19 520.006,406.286 447.206,371.801 445.087,348.614 		"/>
		<polygon style="fill:#E07DA6;" points="605.514,174.896 581.38,185.102 506.681,377.19 520.006,406.286 		"/>
	</g>
	<g>
		<path style="fill:#F2D3E8;" d="M397.504,35.263c-1.873-1.367-4.817-0.919-6.197,0.943c-1.382,1.861-0.959,4.807,0.89,6.204
			c1.849,1.397,4.799,1,6.213-0.837C399.822,39.735,399.498,36.717,397.504,35.263z"/>
		<path style="fill:#F2D3E8;" d="M573.717,425.474c-1.873-1.367-4.817-0.919-6.197,0.943c-1.382,1.861-0.959,4.807,0.89,6.204
			c1.849,1.397,4.798,1,6.212-0.837C576.036,429.946,575.712,426.929,573.717,425.474z"/>
		<path style="fill:#F2D3E8;" d="M87.053,429.946c-1.873-1.367-4.817-0.919-6.197,0.943c-1.382,1.861-0.959,4.807,0.89,6.204
			c1.849,1.397,4.799,1,6.213-0.837C89.371,434.418,89.047,431.401,87.053,429.946z"/>
		<path style="fill:#F2D3E8;" d="M695.317,232.056c-1.873-1.367-4.817-0.919-6.197,0.943c-1.382,1.861-0.959,4.807,0.89,6.204
			c1.849,1.397,4.799,1,6.213-0.837C697.635,236.528,697.311,233.51,695.317,232.056z"/>
		<path style="fill:#F2D3E8;" d="M699.032,343.613c-1.873-1.367-4.817-0.919-6.197,0.943c-1.382,1.861-0.959,4.807,0.89,6.204
			c1.849,1.397,4.799,1,6.213-0.837C701.35,348.085,701.026,345.068,699.032,343.613z"/>
		<path style="fill:#F2D3E8;" d="M202.768,41.452c-1.873-1.367-4.817-0.919-6.197,0.943c-1.382,1.861-0.959,4.807,0.89,6.204
			c1.849,1.397,4.799,1,6.213-0.837C205.087,45.924,204.763,42.907,202.768,41.452z"/>
		<path style="fill:#FFFFFF;" d="M193.983,114.328c-1.873-1.367-4.817-0.919-6.197,0.943c-1.382,1.861-0.959,4.807,0.89,6.204
			c1.849,1.397,4.799,1,6.212-0.837C196.301,118.8,195.978,115.782,193.983,114.328z"/>
		<path style="fill:#FFFFFF;" d="M533.299,197.573c-1.873-1.367-4.817-0.919-6.197,0.943c-1.382,1.861-0.959,4.807,0.89,6.204
			c1.849,1.397,4.799,1,6.213-0.837C535.617,202.046,535.294,199.028,533.299,197.573z"/>
		<path style="fill:#F2D3E8;" d="M42.536,186.84c-1.873-1.367-4.817-0.919-6.197,0.943c-1.382,1.861-0.959,4.807,0.89,6.204
			c1.849,1.397,4.799,1,6.213-0.837C44.854,191.313,44.53,188.295,42.536,186.84z"/>
		<path style="fill:#F2D3E8;" d="M165.464,67.038c-1.071-0.781-2.752-0.525-3.542,0.539c-0.789,1.064-0.548,2.747,0.509,3.546
			c1.057,0.799,2.743,0.572,3.551-0.478C166.789,69.594,166.604,67.87,165.464,67.038z"/>
		<path style="fill:#FFFFFF;" d="M434.416,264.577c-1.071-0.781-2.752-0.525-3.542,0.539c-0.789,1.064-0.548,2.747,0.509,3.546
			c1.057,0.799,2.743,0.572,3.551-0.478C435.742,267.134,435.556,265.409,434.416,264.577z"/>
		<path style="fill:#FFFFFF;" d="M587.904,327.657c-1.071-0.781-2.752-0.525-3.542,0.539c-0.789,1.064-0.548,2.747,0.509,3.546
			c1.057,0.799,2.743,0.572,3.551-0.478C589.23,330.213,589.044,328.489,587.904,327.657z"/>
		<path style="fill:#FFFFFF;" d="M156.104,389.724c-1.071-0.781-2.752-0.525-3.542,0.539c-0.789,1.064-0.548,2.747,0.509,3.546
			c1.057,0.799,2.743,0.572,3.551-0.478C157.429,392.28,157.243,390.555,156.104,389.724z"/>
		<path style="fill:#FFFFFF;" d="M107.2,307.222c-1.071-0.781-2.752-0.525-3.542,0.539c-0.789,1.064-0.548,2.747,0.509,3.546
			c1.057,0.799,2.743,0.572,3.551-0.478C108.526,309.779,108.34,308.054,107.2,307.222z"/>
		<path style="fill:#FFFFFF;" d="M396.381,99.542c-1.071-0.781-2.752-0.525-3.542,0.539c-0.789,1.064-0.548,2.747,0.509,3.546
			c1.057,0.799,2.743,0.572,3.551-0.478C397.706,102.098,397.52,100.374,396.381,99.542z"/>
		<path style="fill:#F2D3E8;" d="M561.677,438.77c-1.071-0.781-2.752-0.525-3.542,0.539c-0.789,1.064-0.548,2.747,0.509,3.546
			c1.057,0.799,2.743,0.572,3.551-0.478C563.002,441.326,562.817,439.601,561.677,438.77z"/>
		<path style="fill:#F2D3E8;" d="M135.66,441.279c-1.071-0.781-2.752-0.525-3.542,0.539c-0.789,1.064-0.548,2.747,0.509,3.546
			c1.057,0.799,2.743,0.572,3.551-0.478C136.985,443.835,136.8,442.11,135.66,441.279z"/>
		<path style="fill:#F2D3E8;" d="M681.017,151.712c-1.071-0.781-2.752-0.525-3.542,0.539c-0.789,1.064-0.548,2.747,0.509,3.546
			c1.057,0.799,2.743,0.572,3.551-0.478C682.342,154.268,682.157,152.544,681.017,151.712z"/>
	</g>
</g>
</svg>
